<svg width="192" height="137" viewBox="0 0 192 137" fill="none" xmlns="http://www.w3.org/2000/svg">
<path fill-rule="evenodd" clip-rule="evenodd" d="M118.614 42.6341C135.273 43.4298 187.514 50.4236 186.043 73.42C185.812 77.0331 185.108 77.9187 183.084 80.6587L183.612 75.5621C184.493 54.2956 133.623 50.9771 118.614 51.02C116.314 51.02 114.449 49.1422 114.449 46.8271C114.449 44.5119 116.314 42.6341 118.614 42.6341ZM45.541 65.5197C47.8026 65.2153 50.3255 65.0755 53.1439 65.0755C56.1149 65.0755 60.9406 64.9122 66.9377 64.7116C66.9143 65.1392 66.9033 65.5681 66.9033 65.9999C66.9033 79.2832 77.5996 90.0507 90.7966 90.0507C103.994 90.0507 114.691 79.2832 114.691 65.9999C114.691 65.3716 114.667 64.7517 114.62 64.1359C135.792 64.6991 154.949 66.916 158.939 73.211C163.508 80.4152 115.628 85.8466 85.8321 94.263C68.2383 99.2337 61.0066 110.317 60.7935 119.682C50.9414 107.097 45.0612 91.2145 45.0612 73.9499C45.0612 71.0979 45.2262 68.286 45.541 65.5197ZM118.533 -7.05629e-06C82.7126 -7.05629e-06 52.8854 25.8027 46.3838 59.9485C48.9946 59.615 51.7333 59.3479 54.615 59.1597C59.1382 58.8635 63.6546 58.5785 68.1475 58.3197C71.3303 48.8032 80.2695 41.9505 90.7966 41.9505C100.898 41.9505 109.534 48.2593 113.031 57.1767C135.824 57.7108 156.027 60.6127 170.695 68.4036C197.145 82.4535 151.593 96.8743 114.859 114.991C77.2971 133.516 151.585 151.267 176.309 119.631C186.138 107.056 192 91.1923 192 73.9499C192 33.1093 159.107 -7.05629e-06 118.533 -7.05629e-06Z" fill="#598526"/>
<path fill-rule="evenodd" clip-rule="evenodd" d="M26.7808 87.6751C28.6538 73.257 33.4036 67.2287 45.1789 65.6455L45.1844 65.6441C45.3982 63.7398 45.686 61.8566 46.0408 60H46.0338C7.07752 64.9738 -2.84335 85.0445 0.651825 95.919C4.3845 107.534 24.5424 104.91 26.7808 87.6751Z" fill="#598526"/>
</svg>
