<svg width="315" height="197" viewBox="0 0 315 197" fill="none" xmlns="http://www.w3.org/2000/svg">
<path d="M26.8978 162.257C26.6585 161.426 26.3223 160.691 25.8893 160.053C25.4563 159.403 24.9264 158.856 24.2997 158.412C23.6844 157.956 22.9778 157.608 22.1802 157.369C21.3939 157.13 20.5222 157.01 19.565 157.01C17.7759 157.01 16.2034 157.454 14.8473 158.343C13.5027 159.232 12.4543 160.525 11.7023 162.223C10.9502 163.91 10.5741 165.972 10.5741 168.411C10.5741 170.849 10.9445 172.923 11.6852 174.633C12.4259 176.342 13.4742 177.647 14.8303 178.547C16.1863 179.436 17.7873 179.88 19.6333 179.88C21.3084 179.88 22.7385 179.584 23.9237 178.991C25.1202 178.387 26.0318 177.538 26.6585 176.445C27.2966 175.351 27.6157 174.057 27.6157 172.564L29.1199 172.787H20.0949V167.214H34.7434V171.624C34.7434 174.701 34.0939 177.345 32.7948 179.555C31.4958 181.755 29.7067 183.453 27.4277 184.649C25.1486 185.834 22.5391 186.427 19.5992 186.427C16.3173 186.427 13.4343 185.703 10.9502 184.256C8.46602 182.797 6.52883 180.729 5.13861 178.051C3.75978 175.362 3.07037 172.171 3.07037 168.479C3.07037 165.642 3.4806 163.112 4.30106 160.89C5.13291 158.657 6.29522 156.765 7.788 155.215C9.28078 153.665 11.0185 152.486 13.0013 151.677C14.9841 150.868 17.1321 150.463 19.4453 150.463C21.4281 150.463 23.2741 150.754 24.9834 151.335C26.6927 151.905 28.2083 152.714 29.5301 153.762C30.8633 154.811 31.9516 156.058 32.7948 157.506C33.6381 158.941 34.1794 160.525 34.4187 162.257H26.8978ZM52.0286 186.461C49.3735 186.461 47.0773 185.897 45.1401 184.769C43.2144 183.629 41.7273 182.045 40.6789 180.017C39.6306 177.977 39.1064 175.613 39.1064 172.923C39.1064 170.211 39.6306 167.841 40.6789 165.813C41.7273 163.773 43.2144 162.189 45.1401 161.061C47.0773 159.921 49.3735 159.352 52.0286 159.352C54.6837 159.352 56.9741 159.921 58.8999 161.061C60.8371 162.189 62.3299 163.773 63.3782 165.813C64.4266 167.841 64.9508 170.211 64.9508 172.923C64.9508 175.613 64.4266 177.977 63.3782 180.017C62.3299 182.045 60.8371 183.629 58.8999 184.769C56.9741 185.897 54.6837 186.461 52.0286 186.461ZM52.0628 180.82C53.2706 180.82 54.2791 180.478 55.0882 179.795C55.8972 179.1 56.5069 178.154 56.9171 176.957C57.3387 175.761 57.5496 174.399 57.5496 172.872C57.5496 171.345 57.3387 169.983 56.9171 168.787C56.5069 167.59 55.8972 166.645 55.0882 165.95C54.2791 165.254 53.2706 164.907 52.0628 164.907C50.8435 164.907 49.8179 165.254 48.986 165.95C48.1656 166.645 47.5445 167.59 47.1229 168.787C46.7127 169.983 46.5076 171.345 46.5076 172.872C46.5076 174.399 46.7127 175.761 47.1229 176.957C47.5445 178.154 48.1656 179.1 48.986 179.795C49.8179 180.478 50.8435 180.82 52.0628 180.82ZM76.967 150.942V185.948H69.6855V150.942H76.967ZM96.9187 159.694V165.163H80.7146V159.694H96.9187ZM84.4238 185.948V157.796C84.4238 155.893 84.7941 154.315 85.5348 153.062C86.2869 151.808 87.3125 150.868 88.6115 150.241C89.9106 149.614 91.3863 149.301 93.0386 149.301C94.1553 149.301 95.1752 149.387 96.0982 149.558C97.0326 149.728 97.7277 149.882 98.1835 150.019L96.8845 155.489C96.5996 155.398 96.2463 155.312 95.8247 155.232C95.4145 155.153 94.9929 155.113 94.5599 155.113C93.4887 155.113 92.7423 155.363 92.3207 155.865C91.8991 156.355 91.6883 157.044 91.6883 157.933V185.948H84.4238ZM112.644 185.948V150.942H126.455C129.11 150.942 131.372 151.449 133.241 152.463C135.11 153.466 136.534 154.862 137.514 156.651C138.506 158.429 139.001 160.48 139.001 162.804C139.001 165.129 138.5 167.18 137.497 168.958C136.494 170.736 135.041 172.12 133.138 173.111C131.247 174.103 128.956 174.599 126.267 174.599H117.464V168.667H125.071C126.495 168.667 127.669 168.422 128.592 167.932C129.526 167.431 130.221 166.742 130.677 165.864C131.144 164.975 131.378 163.955 131.378 162.804C131.378 161.642 131.144 160.628 130.677 159.762C130.221 158.885 129.526 158.206 128.592 157.728C127.657 157.238 126.472 156.993 125.036 156.993H120.045V185.948H112.644ZM150.453 186.444C148.778 186.444 147.286 186.153 145.975 185.572C144.665 184.98 143.628 184.108 142.864 182.957C142.112 181.795 141.736 180.347 141.736 178.615C141.736 177.157 142.004 175.932 142.539 174.94C143.075 173.949 143.804 173.151 144.727 172.547C145.65 171.943 146.699 171.488 147.872 171.18C149.058 170.872 150.3 170.656 151.599 170.53C153.126 170.371 154.356 170.223 155.291 170.086C156.225 169.938 156.903 169.721 157.325 169.436C157.746 169.152 157.957 168.73 157.957 168.172V168.069C157.957 166.987 157.615 166.149 156.932 165.556C156.259 164.964 155.302 164.668 154.06 164.668C152.75 164.668 151.707 164.958 150.932 165.539C150.157 166.109 149.644 166.827 149.394 167.693L142.659 167.146C143.001 165.551 143.673 164.172 144.676 163.01C145.679 161.836 146.972 160.936 148.556 160.309C150.151 159.671 151.998 159.352 154.094 159.352C155.553 159.352 156.949 159.523 158.282 159.864C159.627 160.206 160.817 160.736 161.854 161.454C162.903 162.172 163.729 163.095 164.333 164.223C164.937 165.34 165.239 166.679 165.239 168.24V185.948H158.333V182.307H158.128C157.707 183.128 157.142 183.851 156.436 184.478C155.729 185.094 154.881 185.578 153.889 185.931C152.898 186.273 151.753 186.444 150.453 186.444ZM152.539 181.419C153.61 181.419 154.556 181.208 155.376 180.786C156.197 180.353 156.841 179.772 157.308 179.043C157.775 178.313 158.009 177.487 158.009 176.564V173.778C157.781 173.926 157.467 174.063 157.068 174.188C156.681 174.302 156.242 174.411 155.752 174.513C155.262 174.604 154.772 174.69 154.282 174.769C153.792 174.838 153.348 174.901 152.949 174.957C152.094 175.083 151.348 175.282 150.71 175.556C150.072 175.829 149.576 176.2 149.223 176.667C148.87 177.123 148.693 177.692 148.693 178.376C148.693 179.367 149.052 180.125 149.77 180.649C150.499 181.162 151.422 181.419 152.539 181.419ZM170.888 185.948V159.694H177.947V164.274H178.221C178.699 162.645 179.503 161.414 180.631 160.582C181.759 159.739 183.058 159.318 184.528 159.318C184.893 159.318 185.286 159.34 185.707 159.386C186.129 159.431 186.499 159.494 186.818 159.574V166.035C186.477 165.932 186.004 165.841 185.4 165.762C184.796 165.682 184.243 165.642 183.742 165.642C182.671 165.642 181.713 165.875 180.87 166.343C180.038 166.798 179.377 167.437 178.887 168.257C178.409 169.078 178.17 170.023 178.17 171.094V185.948H170.888ZM197.318 186.444C195.643 186.444 194.15 186.153 192.839 185.572C191.529 184.98 190.492 184.108 189.729 182.957C188.976 181.795 188.6 180.347 188.6 178.615C188.6 177.157 188.868 175.932 189.404 174.94C189.939 173.949 190.669 173.151 191.592 172.547C192.515 171.943 193.563 171.488 194.737 171.18C195.922 170.872 197.164 170.656 198.463 170.53C199.99 170.371 201.221 170.223 202.155 170.086C203.089 169.938 203.767 169.721 204.189 169.436C204.611 169.152 204.822 168.73 204.822 168.172V168.069C204.822 166.987 204.48 166.149 203.796 165.556C203.124 164.964 202.166 164.668 200.924 164.668C199.614 164.668 198.571 164.958 197.796 165.539C197.022 166.109 196.509 166.827 196.258 167.693L189.523 167.146C189.865 165.551 190.538 164.172 191.54 163.01C192.543 161.836 193.837 160.936 195.42 160.309C197.016 159.671 198.862 159.352 200.959 159.352C202.417 159.352 203.813 159.523 205.146 159.864C206.491 160.206 207.682 160.736 208.719 161.454C209.767 162.172 210.593 163.095 211.197 164.223C211.801 165.34 212.103 166.679 212.103 168.24V185.948H205.198V182.307H204.992C204.571 183.128 204.007 183.851 203.3 184.478C202.594 185.094 201.745 185.578 200.753 185.931C199.762 186.273 198.617 186.444 197.318 186.444ZM199.403 181.419C200.474 181.419 201.42 181.208 202.241 180.786C203.061 180.353 203.705 179.772 204.172 179.043C204.639 178.313 204.873 177.487 204.873 176.564V173.778C204.645 173.926 204.332 174.063 203.933 174.188C203.545 174.302 203.107 174.411 202.617 174.513C202.127 174.604 201.637 174.69 201.147 174.769C200.657 174.838 200.212 174.901 199.813 174.957C198.959 175.083 198.212 175.282 197.574 175.556C196.936 175.829 196.44 176.2 196.087 176.667C195.734 177.123 195.557 177.692 195.557 178.376C195.557 179.367 195.916 180.125 196.634 180.649C197.363 181.162 198.286 181.419 199.403 181.419ZM227.427 186.376C225.433 186.376 223.627 185.863 222.008 184.837C220.402 183.8 219.125 182.279 218.18 180.273C217.245 178.256 216.778 175.784 216.778 172.855C216.778 169.847 217.262 167.345 218.231 165.351C219.199 163.346 220.487 161.847 222.094 160.856C223.712 159.853 225.484 159.352 227.41 159.352C228.88 159.352 230.105 159.602 231.085 160.104C232.076 160.594 232.874 161.209 233.478 161.95C234.093 162.679 234.56 163.397 234.879 164.104H235.102V150.942H242.366V185.948H235.187V181.743H234.879C234.537 182.473 234.053 183.196 233.426 183.914C232.811 184.621 232.008 185.207 231.016 185.675C230.036 186.142 228.84 186.376 227.427 186.376ZM229.734 180.581C230.908 180.581 231.899 180.262 232.709 179.624C233.529 178.974 234.156 178.068 234.589 176.906C235.033 175.744 235.255 174.382 235.255 172.821C235.255 171.26 235.039 169.904 234.606 168.753C234.173 167.602 233.546 166.713 232.726 166.086C231.905 165.46 230.908 165.146 229.734 165.146C228.538 165.146 227.529 165.471 226.709 166.12C225.888 166.77 225.267 167.67 224.846 168.821C224.424 169.972 224.213 171.305 224.213 172.821C224.213 174.348 224.424 175.698 224.846 176.872C225.279 178.034 225.9 178.946 226.709 179.607C227.529 180.256 228.538 180.581 229.734 180.581ZM248.353 185.948V159.694H255.634V185.948H248.353ZM252.011 156.309C250.928 156.309 249.999 155.95 249.224 155.232C248.461 154.503 248.079 153.631 248.079 152.617C248.079 151.614 248.461 150.754 249.224 150.036C249.999 149.307 250.928 148.942 252.011 148.942C253.093 148.942 254.016 149.307 254.78 150.036C255.555 150.754 255.942 151.614 255.942 152.617C255.942 153.631 255.555 154.503 254.78 155.232C254.016 155.95 253.093 156.309 252.011 156.309ZM283.312 167.18L276.646 167.59C276.532 167.021 276.287 166.508 275.911 166.052C275.535 165.585 275.039 165.215 274.424 164.941C273.82 164.656 273.096 164.514 272.253 164.514C271.125 164.514 270.173 164.753 269.398 165.232C268.623 165.699 268.236 166.326 268.236 167.112C268.236 167.739 268.487 168.268 268.988 168.701C269.489 169.135 270.35 169.482 271.569 169.744L276.321 170.701C278.873 171.226 280.776 172.069 282.03 173.231C283.283 174.393 283.91 175.92 283.91 177.812C283.91 179.533 283.403 181.043 282.389 182.342C281.386 183.641 280.007 184.655 278.252 185.384C276.509 186.102 274.498 186.461 272.219 186.461C268.743 186.461 265.974 185.737 263.912 184.29C261.86 182.832 260.658 180.849 260.305 178.342L267.467 177.966C267.683 179.026 268.208 179.835 269.039 180.393C269.871 180.94 270.937 181.213 272.236 181.213C273.512 181.213 274.538 180.968 275.312 180.478C276.099 179.977 276.498 179.333 276.509 178.547C276.498 177.886 276.218 177.345 275.671 176.923C275.124 176.49 274.281 176.16 273.142 175.932L268.595 175.026C266.031 174.513 264.122 173.624 262.869 172.359C261.627 171.094 261.006 169.482 261.006 167.522C261.006 165.836 261.462 164.383 262.373 163.163C263.296 161.944 264.59 161.004 266.253 160.343C267.928 159.682 269.888 159.352 272.133 159.352C275.449 159.352 278.059 160.053 279.962 161.454C281.876 162.856 282.993 164.764 283.312 167.18ZM300.46 186.461C297.76 186.461 295.435 185.914 293.486 184.82C291.549 183.715 290.056 182.154 289.008 180.137C287.96 178.108 287.436 175.71 287.436 172.941C287.436 170.24 287.96 167.87 289.008 165.83C290.056 163.79 291.532 162.201 293.435 161.061C295.35 159.921 297.594 159.352 300.17 159.352C301.902 159.352 303.514 159.631 305.007 160.189C306.511 160.736 307.822 161.562 308.938 162.668C310.067 163.773 310.944 165.163 311.571 166.838C312.197 168.502 312.511 170.451 312.511 172.684V174.684H290.341V170.171H305.657C305.657 169.123 305.429 168.194 304.973 167.385C304.517 166.576 303.885 165.944 303.076 165.488C302.278 165.021 301.349 164.787 300.289 164.787C299.184 164.787 298.204 165.044 297.349 165.556C296.506 166.058 295.845 166.736 295.367 167.59C294.888 168.434 294.643 169.374 294.632 170.411V174.701C294.632 176 294.871 177.123 295.35 178.068C295.84 179.014 296.529 179.743 297.418 180.256C298.307 180.769 299.361 181.025 300.58 181.025C301.389 181.025 302.13 180.911 302.802 180.684C303.474 180.456 304.05 180.114 304.528 179.658C305.007 179.202 305.372 178.644 305.622 177.983L312.357 178.427C312.015 180.045 311.314 181.458 310.255 182.666C309.206 183.863 307.85 184.797 306.186 185.47C304.534 186.131 302.625 186.461 300.46 186.461Z" fill="#598526"/>
<path fill-rule="evenodd" clip-rule="evenodd" d="M166.564 42.6341C183.919 43.4298 238.34 50.4236 236.808 73.42C236.567 77.0331 235.834 77.9187 233.726 80.6587L234.276 75.5621C235.194 54.2956 182.2 50.9771 166.564 51.02C164.168 51.02 162.226 49.1422 162.226 46.8271C162.226 44.5119 164.168 42.6341 166.564 42.6341ZM90.4418 65.5197C92.7978 65.2153 95.426 65.0755 98.362 65.0755C101.457 65.0755 106.484 64.9122 112.732 64.7115C112.707 65.1391 112.696 65.5681 112.696 65.9999C112.696 79.2832 123.838 90.0507 137.586 90.0507C151.334 90.0507 162.478 79.2832 162.478 65.9999C162.478 65.3716 162.453 64.7517 162.404 64.1359C184.46 64.6991 204.417 66.916 208.573 73.211C213.332 80.4152 163.454 85.8466 132.415 94.263C114.086 99.2337 106.553 110.317 106.331 119.682C96.0676 107.097 89.942 91.2145 89.942 73.9499C89.942 71.0979 90.1139 68.286 90.4418 65.5197ZM166.48 -1.46857e-05C129.165 -1.46857e-05 98.0928 25.8027 91.3198 59.9484C94.0396 59.6149 96.8926 59.3479 99.8945 59.1597C104.607 58.8635 109.311 58.5785 113.992 58.3197C117.307 48.8032 126.62 41.9505 137.586 41.9505C148.109 41.9505 157.106 48.2593 160.748 57.1767C184.493 57.7108 205.54 60.6127 220.82 68.4036C248.373 82.4535 200.921 96.8743 162.653 114.991C123.523 133.516 200.912 151.267 226.668 119.631C236.907 107.056 243.014 91.1923 243.014 73.9499C243.014 33.1093 208.748 -1.46857e-05 166.48 -1.46857e-05Z" fill="#598526"/>
<path fill-rule="evenodd" clip-rule="evenodd" d="M70.8986 87.6751C72.8497 73.257 77.7978 67.2287 90.0645 65.6455L90.0703 65.6441C90.293 63.7398 90.5928 61.8566 90.9625 60H90.9552C50.3729 64.9738 40.038 85.0445 43.679 95.919C47.5675 107.534 68.5667 104.91 70.8986 87.6751Z" fill="#598526"/>
</svg>
