<svg width="141" height="246" viewBox="0 0 141 246" fill="none" xmlns="http://www.w3.org/2000/svg">
<path d="M71.5863 37.2546L72.2363 35.9353C72.2692 36.4115 71.9862 36.8384 71.5863 37.2546ZM61.3242 40.1187C61.3735 36.8784 65.8216 34.5012 66.594 31.3103C66.7383 30.714 66.6652 30.4619 67.2788 30.0537C67.8923 29.6481 68.7944 29.4146 69.5686 29.6321C70.142 29.7935 70.7171 30.3418 70.8705 30.826L70.4962 31.5851C70.0214 31.8319 69.8754 32.2588 69.9466 32.703L66.479 39.7398C64.7826 39.8426 62.9493 40.1053 61.3242 40.1187ZM117.45 30.8567C115.739 31.9906 112.631 31.0942 110.926 32.2334C110.902 30.8233 110.878 29.4133 110.854 28.0033C114.276 27.2856 116.416 28.3688 117.45 30.8567ZM5.64397 244.062C8.43775 245.648 12.6138 246.055 15.5445 244.608C15.8184 244.471 16.0905 244.315 16.2366 244.097C16.5196 243.674 16.2567 243.171 15.9901 242.74C15.0223 241.16 14.0509 239.581 13.0813 238.002C14.5147 236.291 16.5927 234.981 18.4442 233.501C19.5764 232.592 20.7103 231.685 21.8424 230.778C23.0092 229.845 24.1834 228.901 25.016 227.794C25.8487 226.687 26.3161 225.385 25.9582 224.148C37.7962 208.754 55.1888 194.729 70.991 181.368C73.3356 179.386 75.6674 177.391 77.8458 175.31C82.8691 170.508 87.0543 165.272 91.2231 160.051C91.1829 165.737 92.0101 171.971 94.4478 177.371C96.3761 181.644 92.872 186.118 92.7533 190.617C92.693 192.94 93.2573 195.247 93.7831 197.54C95.6438 205.696 96.9896 213.916 97.8131 222.163C97.9574 223.604 98.0834 225.066 97.6908 226.481C97.2288 228.145 96.0766 229.66 95.3772 231.278C94.0589 234.322 94.4223 237.736 96.3688 240.596C98.3299 241.514 100.295 241.795 102.612 241.619C104.113 241.505 105.594 241.151 107.098 241.246C109.343 241.387 111.221 242.486 113.285 243.149C118.436 244.806 124.376 243.671 129.777 242.517C130.489 242.366 131.24 242.196 131.727 241.789C132.354 241.267 132.374 240.467 132.003 239.829C131.037 238.166 128.203 237.704 125.87 237.106C120.415 235.711 115.967 232.368 114.211 228.346C113.851 227.526 113.186 226.469 112.023 226.619C113.482 213.803 114.081 200.191 114.39 187.332C114.457 184.535 114.468 181.733 114.709 178.94C114.925 176.494 115.312 174.059 115.699 171.624C116.762 164.966 117.397 158 118.33 151.249C121.531 151.194 124.876 151.045 127.588 150.97C126.187 140.832 123.525 130.804 120.233 120.903C118.975 117.125 117.632 113.245 117.174 109.387C117.229 109.22 117.275 109.053 117.37 108.893C117.945 107.917 119.407 107.294 120.7 107.783C122.681 107.39 124.699 107.095 126.737 106.901C126.841 106.891 126.951 106.88 127.035 106.833C127.226 106.725 127.172 106.505 127.095 106.336C124.811 101.187 123.792 95.7598 122.267 90.4625C120.731 85.1225 119.946 79.6678 119.922 74.2117C119.915 72.5149 119.983 70.8087 120.454 69.1479C120.866 67.6925 121.584 66.2838 121.834 64.8084C122.729 59.511 117.793 54.6486 117.048 49.3393C118.348 49.8262 120.023 49.2086 120.729 48.2761C121.438 47.3423 121.202 46.3818 121.064 45.3199C127.845 42.4932 132.923 37.9603 137.841 33.5314C138.944 32.5376 140.972 31.1048 139.853 30.123C135.339 26.157 129.145 23.2263 122.344 21.8429C118.242 21.0092 112.69 21.6815 111.196 18.7694C110.498 17.4087 110.35 15.9333 109.815 14.5352C109.184 12.8877 108.006 11.3536 106.408 10.1023C105.586 7.16887 103.855 4.15007 100.464 2.46923C99.4638 1.97298 98.3226 1.6501 97.1686 1.38464C89.5998 -0.348228 80.8441 0.457542 74.5499 3.98731C68.2575 7.51574 64.905 13.8362 67.025 19.4203C63.95 20.9691 61.1197 22.1163 58.8171 24.2681C57.2321 25.7502 56.0909 27.4523 54.9624 29.1425C51.882 33.7502 48.8033 38.3565 45.7228 42.9628C45.942 45.1732 47.2457 46.7433 49.7784 47.9613C50.7115 48.4095 51.7414 48.7416 52.6452 49.2192C53.8066 49.8315 54.7141 50.6599 55.6344 51.4603C56.7811 52.4568 57.9954 53.432 59.2992 54.3271L32.1666 109.431C32.0534 109.663 32.0607 109.895 32.1191 110.122C31.3668 111.29 31.3851 112.923 31.4454 114.244C31.6608 119.093 35.1065 123.895 40.6612 126.601C41.4591 126.989 42.3228 127.345 43.2742 127.441C44.4867 127.564 45.7155 127.248 46.7655 126.786C50.2257 125.261 52.0481 122.124 51.6355 119.188C51.2246 116.251 48.7942 113.579 45.5366 111.833C43.9041 110.959 39.5309 109.181 36.381 108.757L62.2974 56.1187C63.2086 56.5789 64.1618 56.9898 65.1752 57.3286C66.961 60.3434 67.507 64.0973 69.2929 67.1135C71.4439 70.7393 73.6223 74.4492 74.0533 78.3898C74.1592 79.373 74.1573 80.3681 74.4458 81.3326C74.8768 82.78 75.9377 84.0887 76.4544 85.52C77.2013 87.5944 76.7612 89.8022 75.9888 91.8726C74.3801 96.1867 71.327 100.21 67.171 103.494C68.3671 104.315 69.5595 105.138 70.7537 105.958C69.165 108.369 67.0651 110.974 65.4765 113.386C63.7363 116.023 61.9925 118.67 60.6851 121.437C56.551 130.184 56.9436 139.678 57.3837 148.925C58.8061 148.994 60.0003 148.884 61.4246 148.954C59.5128 157.061 56.8541 165.387 51.7377 172.714C49.2507 176.276 43.6303 178.229 39.6258 180.956C35.4333 183.813 31.9165 187.198 29.2724 190.914C24.2765 197.944 22.4961 205.978 17.8526 213.136C16.3736 212.351 14.029 211.746 12.4568 212.426C12.0094 212.621 11.6059 212.869 11.1293 213.022C9.15173 213.656 6.75237 212.449 4.74925 213.036C3.58244 213.377 2.85934 214.266 2.6037 215.165C2.43571 215.749 2.43206 216.351 2.42658 216.947C2.41563 218.711 2.40464 220.473 2.39186 222.234C2.3736 224.819 1.48068 227.085 1.06252 229.652C0.646195 232.219 0.264561 234.823 0.788623 237.379C1.31451 239.935 2.85202 242.476 5.64397 244.062Z" fill="#414042"/>
</svg>
