<svg width="127" height="207" viewBox="0 0 127 207" fill="none" xmlns="http://www.w3.org/2000/svg">
<path d="M19.2651 29.0753C24.1934 30.5587 29.6094 30.9203 34.9833 30.0492C33.3088 30.8682 31.7622 32.9733 32.6222 34.3046C33.4823 35.6373 35.7611 36.379 37.6894 35.9548C37.3059 38.2879 35.3302 41.5962 36.7527 43.7053C37.4392 44.7231 38.4983 45.5809 39.2981 46.5547C41.6463 49.4188 41.5441 52.9833 42.941 56.1609C43.8321 58.1899 45.3549 60.1068 45.5905 62.2306C45.8242 64.345 44.9897 66.9356 47.2814 68.2389C48.3112 68.8245 49.6899 68.9286 50.9882 69.0113C49.2681 76.8285 48.6965 84.9446 50.088 92.7978C50.4002 94.576 50.791 96.4036 50.1811 98.1392C49.1622 101.042 45.5631 103.118 44.1954 105.943C42.8479 108.73 44.0366 112.071 47.0623 114.032L25.205 178.885C23.4466 179.436 21.3376 180.459 19.8074 180.539C18.1895 180.624 16.5498 180.44 14.9429 180.607C13.2046 180.787 11.5539 181.389 10.3104 182.295C9.0285 183.231 8.18855 184.712 9.03581 185.883C9.29875 186.245 9.69684 186.542 10.1077 186.821C11.2909 187.627 12.6385 188.334 14.1705 188.719C18.1384 189.72 22.7436 188.295 25.2817 185.851C25.8953 185.26 26.8576 184.053 27.5679 182.776C27.7395 182.623 27.8838 182.451 27.9532 182.245L50.5791 115.113C52.3211 115.074 54.0029 114.283 55.2902 113.364C59.5138 110.348 61.4256 105.707 60.1803 101.489C62.0136 99.3318 64.3654 99.748 65.7605 97.4228C66.5493 96.1088 66.4964 94.6241 66.5183 93.19C66.6151 86.6988 68.5324 80.2249 72.1168 74.2833C73.8095 75.8027 74.4541 78.7828 76.1468 80.3023C77.0032 81.0693 77.8906 82.1578 77.1073 82.9676C78.1061 91.5706 77.2186 101.582 73.5429 109.786C72.5843 111.923 71.4649 114.05 71.1636 116.287C70.8496 118.601 71.4266 120.925 71.9068 123.224C74.3829 135.058 74.3792 147.165 71.8977 158.996C71.2568 162.059 70.4205 165.163 68.3498 167.867C67.2487 169.303 65.797 170.637 65.2675 172.236C64.7361 173.836 65.5377 175.853 67.6796 176.36C66.1567 177.522 64.6339 178.683 63.1092 179.845C64.3855 180.348 67.0095 181.475 68.2858 181.98C65.5834 184.394 61.9496 186.138 58.3743 187.841C54.2896 189.786 49.9656 191.794 45.1011 192.027C43.4778 192.106 41.829 191.982 40.2367 192.226C38.6444 192.47 37.043 193.199 36.6285 194.347C36.2286 195.46 37.0795 196.656 38.3285 197.358C39.5775 198.06 41.1515 198.364 42.6908 198.609C49.3046 199.665 56.4296 199.905 62.6563 197.962C66.0216 196.913 70.0973 195.703 73.7328 195.406C69.4509 198.176 64.3289 200.25 58.8418 201.437C57.3372 201.763 55.5933 202.154 55.02 203.222C54.4174 204.343 55.5678 205.636 57.0724 206.126C58.577 206.617 60.3008 206.52 61.9423 206.415C66.5621 206.116 71.1855 205.817 75.8053 205.517C85.1088 204.917 94.4105 204.315 103.694 203.567C105.376 203.43 107.207 203.238 108.368 202.339C109.838 201.2 109.639 199.356 108.807 197.914C107.972 196.471 106.902 195.162 106.248 193.672C109.243 192.871 108.951 188.994 105.856 188.436C106.029 187.511 106.772 186.65 107.841 186.138C104.883 183.254 105.281 179.282 105.814 175.699C106.88 168.522 107.948 161.345 109.015 154.168C109.888 148.287 110.768 142.38 112.802 136.653C114.44 132.039 116.826 127.539 117.597 122.805C118.329 118.301 117.573 113.712 118.446 109.221C119.527 103.643 123.057 98.49 124.992 93.038C128.661 82.7115 126.586 71.5445 118.882 62.4813C120.06 60.395 119.921 57.9337 118.515 55.9247C117.867 55.0016 116.73 54.0905 115.314 54.1519C116.198 53.2594 117.119 52.2976 117.19 51.1957C117.261 50.0952 116.067 48.8799 114.568 49.0133C113.775 49.0826 112.941 49.4975 112.249 49.2041C111.526 48.8959 111.659 48.1235 111.778 47.5179C112.369 44.491 110.067 41.5215 107.096 39.3711C104.125 37.2181 100.475 35.6373 97.332 33.6189C91.9033 30.1305 88.1948 25.4775 84.2469 21.0527C80.2991 16.6278 75.8217 12.2202 69.5056 9.65227C63.1876 7.08299 55.4217 7.00564 50.0551 10.5447C48.6089 9.3895 46.3027 8.84922 44.2064 9.17205C42.1102 9.49488 40.6968 11.3451 40.0121 12.8285C38.2208 10.4433 37.4977 7.49386 33.9698 6.61742C33.6503 6.53872 33.3216 6.4707 32.9947 6.40133C31.0647 4.67247 28.6361 3.23976 25.8624 2.30329C20.0009 0.324965 12.832 0.562404 7.24084 2.92358C5.51527 3.65195 3.91936 4.58177 2.77993 5.77836C1.29905 7.33247 0.678194 9.24274 0.393338 11.1263C-0.172722 14.8896 0.798747 19.145 4.85977 21.4969C5.04967 24.5344 3.42267 27.4759 2.62836 30.4614C2.38915 31.3632 2.18649 32.3823 2.92602 33.124C3.54869 33.7483 4.67352 33.9858 5.72895 34.0285C8.6469 34.1485 11.4041 33.108 13.8765 31.9688C15.7518 31.1043 17.5815 30.1452 19.2651 29.0753Z" fill="#414042"/>
</svg>
